<svg width="54" height="94" viewBox="0 0 54 94" fill="none" xmlns="http://www.w3.org/2000/svg">
<g opacity="0.88">
<g clip-path="url(#clip0_48_1163)">
<path d="M42.2705 48.106L24.8648 75.7115L-9.19986 74.4669L8.33684 46.8415L42.2705 48.106Z" fill="#C5E9DA" stroke="#36B37E" stroke-width="0.474153" stroke-miterlimit="10" stroke-linejoin="round"/>
<path d="M8.33588 46.8406L-9.20083 74.4661L-22.7232 44.3862L-6.64018 17.5994L8.33588 46.8406Z" fill="white" stroke="#36B37E" stroke-width="0.474153" stroke-miterlimit="10" stroke-linejoin="round"/>
<path d="M8.33576 46.8414L19.437 32.0221L-6.6403 17.6002L8.33576 46.8414Z" fill="white" stroke="#36B37E" stroke-width="0.474153" stroke-miterlimit="10" stroke-linejoin="round"/>
<path d="M19.4375 32.0217L42.2699 48.1055L8.33624 46.8409L19.4375 32.0217Z" fill="white" stroke="#36B37E" stroke-width="0.474153" stroke-miterlimit="10" stroke-linejoin="round"/>
<path d="M-6.64023 17.5993L27.6373 19.5353L19.4371 32.0213L-6.64023 17.5993Z" fill="#C5E9DA" stroke="#36B37E" stroke-width="0.474153" stroke-miterlimit="10" stroke-linejoin="round"/>
<path d="M42.2699 48.1055L27.6377 19.5357L19.4375 32.0217L42.2699 48.1055Z" fill="white" stroke="#36B37E" stroke-width="0.474153" stroke-miterlimit="10" stroke-linejoin="round"/>
<path d="M13.9049 39.4207L10.5371 43.8762L13.9049 39.4207Z" fill="#644DF2"/>
<path d="M12.123 46.9727L10.5376 43.877L8.33604 46.8406L12.123 46.9727Z" fill="#36B37E"/>
<path d="M12.1227 46.9726L-4.98279 74.6127L0.866433 74.8185L17.8783 47.1793L12.1227 46.9726Z" fill="#36B37E"/>
<path d="M22.2096 47.3633L5.10404 75.0033L10.9533 75.2091L27.9651 47.5699L22.2096 47.3633Z" fill="#36B37E"/>
<path d="M22.2094 47.3633L16.3259 35.8757L13.9052 39.4224L17.8784 47.1803L22.2094 47.3633Z" fill="#36B37E"/>
<path d="M27.9648 47.5688L20.324 32.6498L31.9667 40.8582L35.5579 47.8701L27.9648 47.5688Z" fill="#36B37E"/>
<path d="M35.5582 47.8704L32.8791 51.832L39.7599 52.1215L42.2698 48.1053L35.5582 47.8704Z" fill="#172B4D"/>
<path d="M25.566 51.435L23.1307 55.413L30.6301 55.7152L33.1591 51.7364L25.566 51.435Z" fill="#172B4D"/>
<path d="M30.6305 55.7142L27.9513 59.6757L34.8321 59.9652L37.3612 55.9864L30.6305 55.7142Z" fill="#172B4D"/>
<path d="M20.1203 30.9651L19.4371 32.0213L24.1305 19.3068L27.6373 19.5353L20.1203 30.9651Z" fill="#172B4D"/>
<path d="M-12.7485 54.4848L-15.0089 49.4278L-11.9294 44.2255L-9.57534 49.2815L0.848266 32.2199C0.848266 32.2199 -5.64645 19.5388 -6.63976 17.5993C-7.63307 15.6599 -22.7419 44.3488 -22.7419 44.3488L-15.8852 59.5752L-12.7485 54.4848Z" fill="#172B4D"/>
</g>
</g>
<defs>
<clipPath id="clip0_48_1163">
<rect width="58.2472" height="66.5024" fill="white" transform="translate(50.1346 63.0029) rotate(152.88)"/>
</clipPath>
</defs>
</svg>
